<?xml version="1.0" standalone="no"?>
<!DOCTYPE svg PUBLIC "-//W3C//DTD SVG 20010904//EN"
 "http://www.w3.org/TR/2001/REC-SVG-20010904/DTD/svg10.dtd">
<svg version="1.0" xmlns="http://www.w3.org/2000/svg"
 width="260.000000pt" height="260.000000pt" viewBox="0 0 260.000000 260.000000"
 preserveAspectRatio="xMidYMid meet">
<metadata>
Created by potrace 1.11, written by Peter Selinger 2001-2013
</metadata>
<g transform="translate(0.000000,260.000000) scale(0.100000,-0.100000)"
fill="#000000" stroke="none">
<path d="M807 2323 c-20 -41 -22 -42 -40 -25 -10 9 -29 17 -41 17 -22 1 -55
-29 -57 -52 -1 -7 -2 -19 -3 -25 0 -7 -13 -13 -28 -13 -15 -1 -24 3 -21 8 3 5
-3 7 -13 5 -11 -2 -18 -10 -17 -16 2 -7 -1 -12 -6 -12 -6 0 -13 -20 -17 -45
-4 -28 -11 -45 -20 -45 -8 0 -14 5 -14 10 0 15 -23 7 -39 -14 -15 -20 -10
-124 7 -135 16 -11 14 -114 -3 -161 -9 -25 -17 -70 -17 -100 0 -58 23 -130 42
-130 6 0 9 -4 5 -9 -3 -5 14 -25 37 -43 100 -79 147 -133 154 -176 4 -23 11
-42 16 -42 5 0 7 -4 4 -8 -6 -10 40 -88 50 -84 21 9 60 -145 41 -164 -4 -4 -7
-15 -7 -25 0 -9 -6 -20 -12 -22 -8 -3 -6 -6 4 -6 9 -1 21 6 25 14 5 8 23 19
40 24 26 7 42 3 99 -25 38 -18 72 -34 75 -34 7 0 5 58 -2 64 -2 2 -20 6 -39 8
-19 3 -44 8 -55 12 -11 5 -26 10 -33 12 -14 4 -39 58 -48 102 -4 19 1 34 15
48 11 12 17 25 14 28 -4 3 -1 6 5 6 6 0 16 16 23 35 7 19 17 36 21 36 12 2 28
6 31 8 1 1 19 4 39 6 21 2 48 10 60 17 13 7 26 11 31 10 4 -1 7 3 7 8 0 5 3 9
8 8 15 -4 68 32 105 71 40 44 44 46 66 32 9 -6 11 -18 7 -35 -5 -21 -3 -26 11
-26 14 0 15 -2 4 -9 -16 -10 -5 -17 32 -19 15 -1 26 2 22 7 -3 6 7 8 22 5 29
-5 53 -28 53 -51 0 -23 15 -14 30 20 8 17 21 31 28 30 6 -2 12 0 12 5 0 4 23
8 50 9 63 1 82 15 70 51 -5 15 -11 45 -13 67 -2 24 -9 39 -15 38 -7 -2 -12 6
-12 16 0 27 -13 33 -47 20 -25 -9 -30 -7 -48 15 -12 14 -26 26 -33 26 -7 0
-12 4 -12 10 0 5 -33 19 -72 30 -94 27 -163 61 -213 106 -42 37 -105 70 -194
99 -46 15 -55 22 -71 59 -25 56 -32 144 -21 246 7 65 6 92 -4 117 -20 46 -51
41 -78 -14z"/>
<path d="M1074 1309 c-7 -12 5 -31 17 -24 5 4 9 1 9 -5 0 -7 6 -8 18 -1 10 5
24 6 31 1 8 -4 26 -4 42 0 31 9 47 -3 54 -41 3 -12 9 -27 15 -33 5 -5 10 -19
10 -30 0 -12 7 -30 15 -40 8 -10 12 -23 8 -29 -3 -5 0 -13 6 -17 7 -4 13 -17
14 -28 1 -12 4 -22 7 -22 3 0 6 -8 7 -18 1 -9 2 -22 3 -27 6 -29 0 -35 -20
-23 -11 7 -20 17 -20 21 0 5 -19 28 -43 51 -34 34 -40 45 -30 55 7 6 13 8 13
3 0 -5 7 -9 15 -9 8 0 13 3 10 5 -3 3 0 11 6 19 12 14 13 14 -73 18 -56 2 -61
-11 -23 -49 14 -14 25 -29 25 -34 0 -5 11 -18 25 -30 14 -13 23 -28 19 -34 -4
-7 -3 -8 4 -4 7 4 12 0 12 -10 0 -10 3 -15 6 -11 5 5 74 -76 74 -88 0 -3 8
-13 18 -23 9 -10 28 -33 42 -51 14 -18 33 -41 43 -49 9 -9 17 -21 17 -26 0 -5
8 -16 18 -25 17 -14 19 -30 17 -141 -3 -146 -2 -137 -17 -122 -6 6 -17 8 -27
3 -9 -5 -24 -7 -34 -5 -11 1 -16 0 -13 -3 3 -4 2 -11 -3 -17 -7 -8 23 -12 110
-13 73 -1 121 2 125 9 9 13 -14 27 -38 23 -10 -2 -18 1 -18 7 0 7 -4 7 -13 0
-18 -15 -33 -2 -32 28 1 14 -2 33 -7 42 -4 9 -4 19 0 22 4 3 7 38 7 78 -1 65
1 76 22 96 13 12 21 22 17 22 -4 0 7 14 24 30 18 17 32 33 32 38 1 4 14 23 30
42 35 40 36 42 75 95 16 22 38 47 47 56 10 9 18 20 18 24 0 5 7 15 15 24 46
51 53 60 47 65 -3 3 0 6 6 6 7 0 12 6 12 13 0 11 -49 13 -249 13 -154 -1 -249
-5 -248 -11 4 -20 22 -33 29 -21 4 6 8 7 8 1 0 -11 151 -12 169 -1 6 4 11 2
11 -3 0 -13 22 -10 32 4 5 6 8 5 8 -3 0 -10 5 -10 20 -2 11 6 20 7 20 3 0 -4
27 -8 59 -8 35 -1 57 3 54 9 -3 5 -1 6 5 2 17 -10 17 -9 -33 -62 -25 -25 -45
-50 -45 -54 0 -14 -30 -20 -100 -20 -45 0 -70 4 -73 13 -4 9 -8 9 -15 -2 -6
-9 -24 -12 -51 -9 -22 2 -41 -1 -41 -6 0 -5 -8 -2 -18 7 -10 10 -24 17 -31 17
-8 0 -11 6 -7 15 3 8 -2 19 -12 24 -9 6 -14 11 -10 11 4 0 -1 22 -12 49 -10
27 -16 52 -13 55 4 3 2 6 -3 6 -6 0 -16 23 -23 50 -7 28 -17 50 -23 50 -6 0
-8 7 -5 15 4 8 2 17 -4 20 -5 4 -7 11 -4 16 8 11 8 11 -98 14 -48 2 -90 -1
-93 -6z"/>
<path d="M1075 1040 c3 -5 15 -10 26 -10 11 0 17 5 14 10 -3 6 -15 10 -26 10
-11 0 -17 -4 -14 -10z"/>
<path d="M1538 1013 c7 -3 16 -2 19 1 4 3 -2 6 -13 5 -11 0 -14 -3 -6 -6z"/>
</g>
</svg>
