<?xml version="1.0" standalone="no"?>
<!DOCTYPE svg PUBLIC "-//W3C//DTD SVG 1.1//EN"
"http://www.w3.org/Graphics/SVG/1.1/DTD/svg11.dtd">

<svg width="756" height="120" view_box="0 0 756 120"
xmlns="http://www.w3.org/2000/svg"
xmlns:link="http://www.w3.org/1999/xlink">\n\n<desc>Généré par Mocodo 2.3.1 le Tue, 27 Sep 2016 07:31:39</desc>

<rect id="frame" x="0" y="0" width="756" height="120" fill="#ffffff" stroke="none" stroke-width="0"/>

<!-- Association CATEGORIE -->
<path d="M576 60 C 625.333333333 26.6666666667 668.0 26.6666666667 704 60" fill="none" stroke="#878787" stroke-width="2"/>
<text x="634" y="54.0" fill="#b2182b" font-family="Verdana" font-size="12">0,N</text>
<path d="M576 60 C 625.333333333 93.3333333333 668.0 93.3333333333 704 60" fill="none" stroke="#878787" stroke-width="2"/>
<text x="634" y="75.0" fill="#b2182b" font-family="Verdana" font-size="12" onmouseover="show(evt,'sous-catégorie')" onmouseout="hide(evt)" style="cursor: pointer;">0,N</text>
<g id="association-CATEGORIE">
	<path d="M 733 35 a 14 14 90 0 1 14 14 V 60 h -86 V 49 a 14 14 90 0 1 14 -14" fill="#bababa" stroke="#bababa" stroke-width="0"/>
	<path d="M 747 60.0 v 11 a 14 14 90 0 1 -14 14 H 675 a 14 14 90 0 1 -14 -14 V 60.0 H 86" fill="#e0e0e0" stroke="#e0e0e0" stroke-width="0"/>
	<rect x="661" y="35" width="86" height="50" fill="none" rx="14" stroke="#878787" stroke-width="2"/>
	<line x1="661" y1="60" x2="747" y2="60" stroke="#878787" stroke-width="1"/>
	<text x="668" y="52.7" fill="#000000" font-family="Verdana" font-size="12">CATEGORIE</text>
</g>

<!-- Association COMPOSER -->
<line x1="576" y1="60" x2="449" y2="60" stroke="#878787" stroke-width="2"/>
<text x="496" y="77.0" fill="#b2182b" font-family="Verdana" font-size="12">1,N</text>
<line x1="334" y1="60" x2="449" y2="60" stroke="#878787" stroke-width="2"/>
<text x="380" y="77.0" fill="#b2182b" font-family="Verdana" font-size="12">1,N</text>
<g id="association-COMPOSER">
	<path d="M 477 35 a 14 14 90 0 1 14 14 V 60 h -84 V 49 a 14 14 90 0 1 14 -14" fill="#bababa" stroke="#bababa" stroke-width="0"/>
	<path d="M 491 60.0 v 11 a 14 14 90 0 1 -14 14 H 421 a 14 14 90 0 1 -14 -14 V 60.0 H 84" fill="#e0e0e0" stroke="#e0e0e0" stroke-width="0"/>
	<rect x="407" y="35" width="84" height="50" fill="none" rx="14" stroke="#878787" stroke-width="2"/>
	<line x1="407" y1="60" x2="491" y2="60" stroke="#878787" stroke-width="1"/>
	<text x="414" y="52.7" fill="#000000" font-family="Verdana" font-size="12">COMPOSER</text>
</g>

<!-- Association MET DANS PANIER -->
<line x1="54" y1="60" x2="196" y2="60" stroke="#878787" stroke-width="2"/>
<text x="104" y="77.0" fill="#b2182b" font-family="Verdana" font-size="12">0,N</text>
<line x1="334" y1="60" x2="196" y2="60" stroke="#878787" stroke-width="2"/>
<text x="266" y="77.0" fill="#b2182b" font-family="Verdana" font-size="12">0,N</text>
<g id="association-MET DANS PANIER">
	<path d="M 247 35 a 14 14 90 0 1 14 14 V 60 h -130 V 49 a 14 14 90 0 1 14 -14" fill="#bababa" stroke="#bababa" stroke-width="0"/>
	<path d="M 261 60.0 v 11 a 14 14 90 0 1 -14 14 H 145 a 14 14 90 0 1 -14 -14 V 60.0 H 130" fill="#e0e0e0" stroke="#e0e0e0" stroke-width="0"/>
	<rect x="131" y="35" width="130" height="50" fill="none" rx="14" stroke="#878787" stroke-width="2"/>
	<line x1="131" y1="60" x2="261" y2="60" stroke="#878787" stroke-width="1"/>
	<text x="138" y="52.7" fill="#000000" font-family="Verdana" font-size="12">MET DANS PANIER</text>
</g>

<!-- Entity Ingrédients -->
<g id="entity-Ingrédients">
	<g id="frame-Ingrédients">
		<rect x="523" y="26" width="106" height="25" fill="#f4a582" stroke="#f4a582" stroke-width="0"/>
		<rect x="523" y="51.0" width="106" height="43" fill="#fddbc7" stroke="#fddbc7" stroke-width="0"/>
		<rect x="523" y="26" width="106" height="68" fill="none" stroke="#d6604d" stroke-width="2"/>
		<line x1="523" y1="51" x2="629" y2="51" stroke="#d6604d" stroke-width="1"/>
	</g>
	<text x="541" y="43.7" fill="#000000" font-family="Verdana" font-size="12">Ingrédients</text>
	<text x="528" y="68.8" fill="#000000" font-family="Verdana" font-size="12">id_ingrédient</text>
	<line x1="528" y1="71" x2="608" y2="71" stroke="#000000" stroke-width="1"/>
	<text x="528" y="85.8" fill="#000000" font-family="Verdana" font-size="12">nom_ingrédient</text>
</g>

<!-- Entity Utilisateurs -->
<g id="entity-Utilisateurs">
	<g id="frame-Utilisateurs">
		<rect x="9" y="9" width="90" height="25" fill="#f4a582" stroke="#f4a582" stroke-width="0"/>
		<rect x="9" y="34.0" width="90" height="77" fill="#fddbc7" stroke="#fddbc7" stroke-width="0"/>
		<rect x="9" y="9" width="90" height="102" fill="none" stroke="#d6604d" stroke-width="2"/>
		<line x1="9" y1="34" x2="99" y2="34" stroke="#d6604d" stroke-width="1"/>
	</g>
	<text x="19" y="26.7" fill="#000000" font-family="Verdana" font-size="12">Utilisateurs</text>
	<text x="14" y="51.7" fill="#000000" font-family="Verdana" font-size="12">id_utilisateur</text>
	<line x1="14" y1="54" x2="94" y2="54" stroke="#000000" stroke-width="1"/>
	<text x="14" y="68.8" fill="#000000" font-family="Verdana" font-size="12">nom</text>
	<text x="14" y="85.8" fill="#000000" font-family="Verdana" font-size="12">sel</text>
	<text x="14" y="102.8" fill="#000000" font-family="Verdana" font-size="12">hash</text>
</g>

<!-- Entity Cocktail -->
<g id="entity-Cocktail">
	<g id="frame-Cocktail">
		<rect x="293" y="9" width="82" height="25" fill="#f4a582" stroke="#f4a582" stroke-width="0"/>
		<rect x="293" y="34.0" width="82" height="77" fill="#fddbc7" stroke="#fddbc7" stroke-width="0"/>
		<rect x="293" y="9" width="82" height="102" fill="none" stroke="#d6604d" stroke-width="2"/>
		<line x1="293" y1="34" x2="375" y2="34" stroke="#d6604d" stroke-width="1"/>
	</g>
	<text x="309" y="26.7" fill="#000000" font-family="Verdana" font-size="12">Cocktail</text>
	<text x="298" y="51.7" fill="#000000" font-family="Verdana" font-size="12">id_cocktail</text>
	<line x1="298" y1="54" x2="363" y2="54" stroke="#000000" stroke-width="1"/>
	<text x="298" y="68.8" fill="#000000" font-family="Verdana" font-size="12">titre</text>
	<text x="298" y="85.8" fill="#000000" font-family="Verdana" font-size="12">ingrédients</text>
	<text x="298" y="102.8" fill="#000000" font-family="Verdana" font-size="12">préparation</text>
</g>

<!-- Annotations -->
<script type="text/ecmascript">
<![CDATA[
	function show(evt, text) {
		var pos = (evt.target.getAttribute("y") < 75) ? "bottom" : "top"
		var annotation = document.getElementById(pos + "_annotation_I1aURA56")
		annotation.textContent = text
		annotation.setAttributeNS(null, "visibility", "visible");
		document.getElementById(pos + "_overlay_I1aURA56").setAttributeNS(null, "visibility", "visible");
	}
	function hide(evt) {
		document.getElementById("top_annotation_I1aURA56").setAttributeNS(null, "visibility", "hidden");
		document.getElementById("top_overlay_I1aURA56").setAttributeNS(null, "visibility", "hidden");
		document.getElementById("bottom_annotation_I1aURA56").setAttributeNS(null, "visibility", "hidden");
		document.getElementById("bottom_overlay_I1aURA56").setAttributeNS(null, "visibility", "hidden");
	}
]]>
</script>
<rect id="top_overlay_I1aURA56" x="0" y="0" width="756" height="40" fill="#4d4d4d" stroke-width="0" opacity="0.9" visibility="hidden"/>
<text id="top_annotation_I1aURA56" text-anchor="middle" x="378.0" y="24" fill="#ffffff" font-family="Verdana" font-size="14" visibility="hidden"></text>
<rect id="bottom_overlay_I1aURA56" x="0" y="80" width="756" height="40" fill="#4d4d4d" stroke-width="0" opacity="0.9" visibility="hidden"/>
<text id="bottom_annotation_I1aURA56" text-anchor="middle" x="378.0" y="104" fill="#ffffff" font-family="Verdana" font-size="14" visibility="hidden"></text>
</svg>